<svg xmlns="http://www.w3.org/2000/svg" xmlns:xlink="http://www.w3.org/1999/xlink" width="500" zoomAndPan="magnify" viewBox="0 0 375 374.999991" height="500" preserveAspectRatio="xMidYMid meet" version="1.0"><defs><g/></defs><rect x="-37.5" width="450" fill="#ffffff" y="-37.499999" height="449.999989" fill-opacity="1"/><rect x="-37.5" width="450" fill="#ffffff" y="-37.499999" height="449.999989" fill-opacity="1"/><rect x="-37.5" width="450" fill="#fff9f0" y="-37.499999" height="449.999989" fill-opacity="1"/><path stroke-linecap="butt" transform="matrix(1.038746, 0, 0, 1.036568, 60.563782, 214.926372)" fill="none" stroke-linejoin="miter" d="M -0.0012343 5.998796 L 148.69062 5.998796 " stroke="#5b7484" stroke-width="12" stroke-opacity="1" stroke-miterlimit="4"/><g fill="#5b7484" fill-opacity="1"><g transform="translate(60.563782, 197.289776)"><g><path d="M 15.515625 0.96875 C 11.941406 0.96875 8.691406 0.351562 5.765625 -0.875 C 2.847656 -2.101562 0.460938 -3.875 -1.390625 -6.1875 L 6.125 -15.09375 C 8.71875 -11.707031 11.523438 -10.015625 14.546875 -10.015625 C 16.535156 -10.015625 18.050781 -10.617188 19.09375 -11.828125 C 20.144531 -13.035156 20.671875 -14.796875 20.671875 -17.109375 L 20.671875 -38.0625 L 3.828125 -38.0625 L 3.828125 -48.703125 L 34.296875 -48.703125 L 34.296875 -17.953125 C 34.296875 -11.640625 32.707031 -6.90625 29.53125 -3.75 C 26.351562 -0.601562 21.679688 0.96875 15.515625 0.96875 Z M 15.515625 0.96875 "/></g></g></g><g fill="#5b7484" fill-opacity="1"><g transform="translate(123.117747, 197.289776)"><g><path d="M 37.5 -9.46875 L 16.90625 -9.46875 L 13.078125 0 L -0.96875 0 L 20.53125 -48.703125 L 34.09375 -48.703125 L 55.65625 0 L 41.328125 0 Z M 33.46875 -19.625 L 27.203125 -35.203125 L 20.9375 -19.625 Z M 33.46875 -19.625 "/></g></g></g><g fill="#5b7484" fill-opacity="1"><g transform="translate(201.605459, 197.289776)"><g><path d="M 23.65625 -17.671875 L 18.5 -12.171875 L 18.5 0 L 4.875 0 L 4.875 -48.703125 L 18.5 -48.703125 L 18.5 -28.453125 L 37.359375 -48.703125 L 52.53125 -48.703125 L 32.625 -27.140625 L 53.578125 0 L 37.578125 0 Z M 23.65625 -17.671875 "/></g></g></g><g fill="#5b7484" fill-opacity="1"><g transform="translate(277.727456, 197.289776)"><g><path d="M 43.96875 -10.640625 L 43.96875 0 L 4.875 0 L 4.875 -48.703125 L 43.0625 -48.703125 L 43.0625 -38.0625 L 18.5 -38.0625 L 18.5 -29.84375 L 40.140625 -29.84375 L 40.140625 -19.546875 L 18.5 -19.546875 L 18.5 -10.640625 Z M 43.96875 -10.640625 "/></g></g></g><g fill="#5b7484" fill-opacity="1"><g transform="translate(222.651112, 225.024511)"><g><path d="M 1.625 -10.78125 L 6.15625 -10.78125 C 7.300781 -10.78125 8.3125 -10.550781 9.1875 -10.09375 C 10.070312 -9.644531 10.757812 -9.015625 11.25 -8.203125 C 11.738281 -7.390625 11.984375 -6.453125 11.984375 -5.390625 C 11.984375 -4.335938 11.738281 -3.398438 11.25 -2.578125 C 10.757812 -1.765625 10.070312 -1.128906 9.1875 -0.671875 C 8.3125 -0.222656 7.300781 0 6.15625 0 L 1.625 0 Z M 6.0625 -1.34375 C 6.9375 -1.34375 7.703125 -1.507812 8.359375 -1.84375 C 9.023438 -2.1875 9.539062 -2.660156 9.90625 -3.265625 C 10.269531 -3.878906 10.453125 -4.585938 10.453125 -5.390625 C 10.453125 -6.191406 10.269531 -6.894531 9.90625 -7.5 C 9.539062 -8.113281 9.023438 -8.585938 8.359375 -8.921875 C 7.703125 -9.265625 6.9375 -9.4375 6.0625 -9.4375 L 3.15625 -9.4375 L 3.15625 -1.34375 Z M 6.0625 -1.34375 "/></g></g></g><g fill="#5b7484" fill-opacity="1"><g transform="translate(239.186922, 225.024511)"><g><path d="M 1.625 -10.78125 L 3.15625 -10.78125 L 3.15625 0 L 1.625 0 Z M 1.625 -10.78125 "/></g></g></g><g fill="#5b7484" fill-opacity="1"><g transform="translate(247.779337, 225.024511)"><g><path d="M 6.4375 0.125 C 5.363281 0.125 4.390625 -0.113281 3.515625 -0.59375 C 2.648438 -1.070312 1.96875 -1.726562 1.46875 -2.5625 C 0.976562 -3.40625 0.734375 -4.347656 0.734375 -5.390625 C 0.734375 -6.441406 0.976562 -7.382812 1.46875 -8.21875 C 1.96875 -9.050781 2.65625 -9.707031 3.53125 -10.1875 C 4.40625 -10.664062 5.378906 -10.90625 6.453125 -10.90625 C 7.296875 -10.90625 8.066406 -10.765625 8.765625 -10.484375 C 9.460938 -10.203125 10.054688 -9.785156 10.546875 -9.234375 L 9.546875 -8.25 C 8.734375 -9.101562 7.722656 -9.53125 6.515625 -9.53125 C 5.710938 -9.53125 4.988281 -9.347656 4.34375 -8.984375 C 3.695312 -8.628906 3.191406 -8.132812 2.828125 -7.5 C 2.460938 -6.875 2.28125 -6.171875 2.28125 -5.390625 C 2.28125 -4.609375 2.460938 -3.898438 2.828125 -3.265625 C 3.191406 -2.640625 3.695312 -2.144531 4.34375 -1.78125 C 4.988281 -1.425781 5.710938 -1.25 6.515625 -1.25 C 7.710938 -1.25 8.722656 -1.679688 9.546875 -2.546875 L 10.546875 -1.578125 C 10.054688 -1.015625 9.457031 -0.585938 8.75 -0.296875 C 8.050781 -0.015625 7.28125 0.125 6.4375 0.125 Z M 6.4375 0.125 "/></g></g></g><g fill="#5b7484" fill-opacity="1"><g transform="translate(262.729535, 225.024511)"><g><path d="M 5.125 -4.796875 L 3.15625 -2.78125 L 3.15625 0 L 1.625 0 L 1.625 -10.78125 L 3.15625 -10.78125 L 3.15625 -4.765625 L 9.015625 -10.78125 L 10.765625 -10.78125 L 6.15625 -5.9375 L 11.0625 0 L 9.265625 0 Z M 5.125 -4.796875 "/></g></g></g><g fill="#5b7484" fill-opacity="1"><g transform="translate(277.618166, 225.024511)"><g><path d="M 11.609375 0 L 11.59375 -7.859375 L 7.703125 -1.3125 L 7 -1.3125 L 3.09375 -7.8125 L 3.09375 0 L 1.625 0 L 1.625 -10.78125 L 2.875 -10.78125 L 7.375 -3.203125 L 11.8125 -10.78125 L 13.078125 -10.78125 L 13.09375 0 Z M 11.609375 0 "/></g></g></g><g fill="#5b7484" fill-opacity="1"><g transform="translate(296.139816, 225.024511)"><g><path d="M 8.484375 -2.703125 L 2.75 -2.703125 L 1.578125 0 L -0.015625 0 L 4.875 -10.78125 L 6.390625 -10.78125 L 11.296875 0 L 9.671875 0 Z M 7.953125 -3.921875 L 5.625 -9.21875 L 3.296875 -3.921875 Z M 7.953125 -3.921875 "/></g></g></g><g fill="#5b7484" fill-opacity="1"><g transform="translate(311.228569, 225.024511)"><g><path d="M 10.890625 -10.78125 L 10.890625 0 L 9.625 0 L 3.15625 -8.046875 L 3.15625 0 L 1.625 0 L 1.625 -10.78125 L 2.875 -10.78125 L 9.34375 -2.75 L 9.34375 -10.78125 Z M 10.890625 -10.78125 "/></g></g></g></svg>